<svg width="60" height="60" viewBox="0 0 60 60" fill="none" xmlns="http://www.w3.org/2000/svg">
<rect width="60" height="60" rx="30" fill="#0178B7"/>
<path fill-rule="evenodd" clip-rule="evenodd" d="M43.2115 23.0167C43.403 22.3867 43.2115 21.9229 42.2942 21.9229H39.2653C38.4946 21.9229 38.1392 22.3232 37.9465 22.7652C37.9465 22.7652 36.4061 26.4529 34.2242 28.8482C33.518 29.5429 33.1973 29.7632 32.8119 29.7632C32.6192 29.7632 32.3296 29.5429 32.3296 28.9117V23.0167C32.3296 22.2598 32.1173 21.9229 31.4757 21.9229H26.7127C26.2315 21.9229 25.9419 22.2736 25.9419 22.6071C25.9419 23.3236 27.0334 23.4898 27.1453 25.5067V29.889C27.1453 30.8502 26.9688 31.0244 26.5834 31.0244C25.5565 31.0244 23.0584 27.3194 21.5757 23.0802C21.2884 22.2552 20.9977 21.9229 20.2234 21.9229H17.1923C16.3269 21.9229 16.1538 22.3232 16.1538 22.7652C16.1538 23.5521 17.1807 27.4613 20.9365 32.6317C23.4403 36.1625 26.9653 38.0767 30.1765 38.0767C32.1023 38.0767 32.34 37.6521 32.34 36.9194V34.2505C32.34 33.4002 32.5223 33.2305 33.1327 33.2305C33.5827 33.2305 34.3523 33.4521 36.15 35.154C38.2038 37.1721 38.5419 38.0767 39.698 38.0767H42.7269C43.5923 38.0767 44.0261 37.6521 43.7769 36.8121C43.5023 35.9767 42.5215 34.764 41.2211 33.3252C40.515 32.5059 39.4557 31.6232 39.1338 31.1813C38.685 30.6148 38.813 30.3621 39.1338 29.8579C39.1338 29.8579 42.8261 24.7509 43.2103 23.0167" fill="white"/>
</svg>
