<svg width="60" height="60" viewBox="0 0 60 60" fill="none" xmlns="http://www.w3.org/2000/svg">
<path d="M58.6749 15.4863C58.3307 14.2145 57.6594 13.055 56.7278 12.1233C55.7961 11.1917 54.6367 10.5203 53.3649 10.1761C48.7088 8.90625 29.9696 8.90625 29.9696 8.90625C29.9696 8.90625 11.2294 8.94469 6.57333 10.2145C5.30149 10.5588 4.14202 11.2302 3.21038 12.1619C2.27874 13.0936 1.60744 14.2531 1.26333 15.525C-0.145033 23.798 -0.691361 36.4041 1.302 44.3461C1.64615 45.6179 2.31747 46.7774 3.2491 47.7091C4.18074 48.6408 5.34019 49.3121 6.612 49.6563C11.2681 50.9262 30.0078 50.9262 30.0078 50.9262C30.0078 50.9262 48.7472 50.9262 53.4031 49.6563C54.6749 49.3122 55.8344 48.6408 56.7661 47.7091C57.6978 46.7774 58.3692 45.618 58.7133 44.3461C60.1988 36.0614 60.6565 23.463 58.6749 15.4863Z" fill="#FF0000"/>
<path d="M24.0049 38.9205L39.5505 29.9163L24.0049 20.9121V38.9205Z" fill="white"/>
</svg>
